# xmcd CD database file
#
# Track frame offsets:
#	150
#	12746
#	27289
#	40384
#	51937
#	66058
#	76971
#	87089
#	99190
#	111322
#	121533
#	136805
#	149470
#	162153
#	171521
#	184034
#	202594
#	213376
#	223271
#	235666
#
# Disc length: 3315 seconds
#
# Revision: 3
# Processed by: cddbd v1.5.2PL0 Copyright (c) Steve Scherf et al.
# Submitted via: CDex 1.50beta10
#
DISCID=120cf114
DTITLE=Various Artist - Country Greats Vol 1
DYEAR=0
DGENRE=Country
TTITLE0=Johnny Cash - Folsom Prison Blues
TTITLE1=Jeannie C Riley - Harper Valley PTA
TTITLE2=Kenny Rogers - Ruby, Don`t Take Your Love To Town
TTITLE3=Patsy Cline - Walkin After Midnight
TTITLE4=Conway Twitty - You`ve Never Been This Far Before
TTITLE5=Roger Miller - King Of The Road
TTITLE6=Carl Perkins - Blue Suede Shoes
TTITLE7=Johnny Preston - Running Bear
TTITLE8=Merle Haggard - Okie From Muskogee
TTITLE9=Leroy Van Dyke - Walk On By
TTITLE10=Jeannie C. Riley - Run, Jeannie, Run
TTITLE11=Frankie Laine - High Noon (Do Not Forsake Me)
TTITLE12=Tex Ritter and His Texans - I'm Wasting My Tears On You
TTITLE13=Liv Maessen - Snow Bird
TTITLE14=Bobbie and Laurie - Carroll Country Accident
TTITLE15=Brian Cadd - Ginger Man
TTITLE16=Lee Conway - All I Want To Do
TTITLE17=Willie Nelson - Broken Promises
TTITLE18=Stonewall Jackson - Me And You And A Dog Named Boo
TTITLE19=John Williamson - Old Man Emu
EXTD=
EXTT0=
EXTT1=
EXTT2=
EXTT3=
EXTT4=
EXTT5=
EXTT6=
EXTT7=
EXTT8=
EXTT9=
EXTT10=
EXTT11=
EXTT12=
EXTT13=
EXTT14=
EXTT15=
EXTT16=
EXTT17=
EXTT18=
EXTT19=
PLAYORDER=
